<?xml version="1.0" encoding="UTF-8"?>
<svg version="1.1" xmlns="http://www.w3.org/2000/svg" width="500" height="500">
<path d="M0 0 C165 0 330 0 500 0 C500 165 500 330 500 500 C335 500 170 500 0 500 C0 335 0 170 0 0 Z " fill="#000A2A" transform="translate(0,0)"/>
<path d="M0 0 C0.26639872 9.93919934 0.52740926 19.87852611 0.78230286 29.8180275 C0.90092872 34.43783552 1.02112962 39.05758907 1.14550781 43.67724609 C1.8022862 68.12418995 2.14777349 92.54405618 2 117 C0.08997698 116.69131656 -1.81960711 116.37991643 -3.72900391 116.06738281 C-4.79245026 115.89426575 -5.85589661 115.72114868 -6.9515686 115.54278564 C-10.84350246 114.84981095 -14.58738679 113.86733683 -18.375 112.75 C-19.92949347 112.30531075 -21.48419055 111.86133283 -23.0390625 111.41796875 C-23.84504883 111.1864209 -24.65103516 110.95487305 -25.48144531 110.71630859 C-29.89413735 109.46128354 -34.32258749 108.26434937 -38.75 107.0625 C-40.61981502 106.5534712 -42.48960652 106.04435599 -44.359375 105.53515625 C-45.29201172 105.28137207 -46.22464844 105.02758789 -47.18554688 104.76611328 C-51.79084914 103.51251868 -56.39538154 102.25610348 -61 101 C-61.90210205 100.75403076 -62.8042041 100.50806152 -63.73364258 100.25463867 C-69.35959308 98.72065324 -74.98496919 97.18458319 -80.60986328 95.64672852 C-83.37067702 94.89323756 -86.13255981 94.14376548 -88.89453125 93.39453125 C-92.1271796 92.5163113 -95.35316612 91.61901373 -98.57421875 90.69921875 C-99.26523682 90.50537598 -99.95625488 90.3115332 -100.66821289 90.11181641 C-102.48108707 89.60289976 -104.29144312 89.08503596 -106.1015625 88.56640625 C-108.9742013 88.00504152 -110.35288722 87.82541533 -113 89 C-114.69788692 90.44759926 -114.69788692 90.44759926 -116.25 92.25 C-124.87106821 101.20053579 -136.44903783 105.90906612 -148.81921387 106.15390015 C-150.74336737 106.17195213 -152.66757657 106.18457641 -154.59179688 106.19287109 C-155.64617447 106.20104858 -156.70055206 106.20922607 -157.78688049 106.21765137 C-161.26416465 106.24239712 -164.74140845 106.25898876 -168.21875 106.2734375 C-169.40830795 106.27876118 -170.59786591 106.28408485 -171.82347107 106.28956985 C-178.11326451 106.31624732 -184.40303842 106.33564423 -190.69287109 106.35009766 C-195.89780135 106.36346474 -201.10234216 106.39137673 -206.30712891 106.43212891 C-212.59698559 106.48137105 -218.88648771 106.50620741 -225.17652893 106.51332474 C-227.57194392 106.52004489 -229.96735075 106.53528658 -232.36265564 106.55921555 C-235.71159383 106.59077776 -239.05915571 106.59091734 -242.40820312 106.58349609 C-243.89055199 106.6081041 -243.89055199 106.6081041 -245.40284729 106.63320923 C-249.89783639 106.59242088 -253.01865529 106.47634602 -256.5994873 103.58853149 C-260.31049611 99.58686002 -260.16239232 96.75768373 -260.19287109 91.52441406 C-260.20104858 90.75347412 -260.20922607 89.98253418 -260.21765137 89.18823242 C-260.24251225 86.63070454 -260.25902425 84.07323224 -260.2734375 81.515625 C-260.27876118 80.64234306 -260.28408485 79.76906113 -260.28956985 78.8693161 C-260.31630612 74.24589414 -260.33567834 69.62249921 -260.35009766 64.99902344 C-260.36673504 60.22612394 -260.41150343 55.45391634 -260.4624691 50.68127823 C-260.49614842 47.0094932 -260.50767588 43.33787214 -260.51332474 39.66594696 C-260.52003674 37.90688548 -260.53525759 36.14783477 -260.55921555 34.38892365 C-260.59088231 31.92309987 -260.59090219 29.4591383 -260.58349609 26.99316406 C-260.59990143 26.26981873 -260.61630676 25.54647339 -260.63320923 24.8012085 C-260.56369422 19.13127476 -258.87436141 16.83603848 -255 13 C-252.6770841 11.83854205 -251.3162967 11.86455486 -248.72909546 11.84609985 C-247.38394112 11.83319916 -247.38394112 11.83319916 -246.01161194 11.82003784 C-245.02470871 11.81577789 -244.03780548 11.81151794 -243.02099609 11.80712891 C-241.98326553 11.79895142 -240.94553497 11.79077393 -239.87635803 11.78234863 C-236.42539039 11.75744568 -232.97446434 11.74095661 -229.5234375 11.7265625 C-228.34269276 11.72123882 -227.16194801 11.71591515 -225.94542313 11.71043015 C-219.68302306 11.6836639 -213.42064306 11.66430928 -207.15820312 11.64990234 C-201.99428372 11.63661853 -196.83076467 11.60887359 -191.66699219 11.56787109 C-185.42060334 11.5182725 -179.17457492 11.49374625 -172.92799759 11.48667526 C-170.55759375 11.48000184 -168.1871967 11.46488324 -165.81690598 11.44078445 C-145.03714771 11.24175333 -128.93199696 13.22791037 -113.4375 28.3125 C-110.17113402 31.65773196 -110.17113402 31.65773196 -109 34 C-99.22617062 31.14010126 -89.55606827 27.96883144 -79.875 24.8125 C-78.95790253 24.51397125 -78.04080505 24.2154425 -77.09591675 23.90786743 C-59.11340276 18.0523895 -41.17019441 12.08047049 -23.23974609 6.06762695 C-22.24956985 5.73614655 -21.25939362 5.40466614 -20.23921204 5.06314087 C-18.38345181 4.44180526 -16.52810947 3.81921964 -14.67326355 3.19515991 C-13.43809746 2.78180893 -13.43809746 2.78180893 -12.17797852 2.36010742 C-11.46384293 2.12031662 -10.74970734 1.88052582 -10.01393127 1.63346863 C-6.44393409 0.51054986 -3.81139387 0 0 0 Z " fill="#FDFDFD" transform="translate(394,190)"/>
<path d="M0 0 C0.26639872 9.93919934 0.52740926 19.87852611 0.78230286 29.8180275 C0.90092872 34.43783552 1.02112962 39.05758907 1.14550781 43.67724609 C1.8022862 68.12418995 2.14777349 92.54405618 2 117 C0.08997698 116.69131656 -1.81960711 116.37991643 -3.72900391 116.06738281 C-4.79245026 115.89426575 -5.85589661 115.72114868 -6.9515686 115.54278564 C-10.84350246 114.84981095 -14.58738679 113.86733683 -18.375 112.75 C-19.92949347 112.30531075 -21.48419055 111.86133283 -23.0390625 111.41796875 C-23.84504883 111.1864209 -24.65103516 110.95487305 -25.48144531 110.71630859 C-29.89413735 109.46128354 -34.32258749 108.26434937 -38.75 107.0625 C-40.61981502 106.5534712 -42.48960652 106.04435599 -44.359375 105.53515625 C-45.29201172 105.28137207 -46.22464844 105.02758789 -47.18554688 104.76611328 C-52.70371761 103.26402968 -58.22101512 101.75873845 -63.73803711 100.25244141 C-68.38256732 98.98473646 -73.02813289 97.72107271 -77.67578125 96.46484375 C-88.82640238 93.44612485 -99.93424602 90.31679098 -111 87 C-110.50628906 86.03578125 -110.01257813 85.0715625 -109.50390625 84.078125 C-108.85655763 82.80219148 -108.20943401 81.52614379 -107.5625 80.25 C-107.23701172 79.61578125 -106.91152344 78.9815625 -106.57617188 78.328125 C-101.56197011 68.40310706 -100.98644852 55.26987101 -104.1171875 44.5703125 C-105.23185692 41.30066941 -106.54680088 38.13475811 -108 35 C-102.22848018 32.32157936 -96.46635982 30.02891817 -90.40234375 28.109375 C-89.5901236 27.84744858 -88.77790344 27.58552216 -87.94107056 27.31565857 C-86.18835811 26.75080156 -84.43495867 26.18807256 -82.68093872 25.62728882 C-77.92711823 24.10712599 -73.17852158 22.57081193 -68.4296875 21.03515625 C-67.43278397 20.71311722 -66.43588043 20.39107819 -65.4087677 20.0592804 C-51.31854067 15.49810721 -37.28149756 10.7759155 -23.23999023 6.06738281 C-22.24977875 5.73593765 -21.25956726 5.40449249 -20.23934937 5.06300354 C-18.38352296 4.44176471 -16.5281288 3.81923255 -14.67324829 3.19517517 C-13.84980927 2.91960281 -13.02637024 2.64403046 -12.17797852 2.36010742 C-11.46384293 2.12031662 -10.74970734 1.88052582 -10.01393127 1.63346863 C-6.44393409 0.51054986 -3.81139387 0 0 0 Z " fill="#7398F1" transform="translate(394,190)"/>
<path d="M0 0 C7.95663182 4.57445499 13.67044841 11.30748515 16.8671875 19.90625 C17.4518571 23.19630168 17.53553917 26.38226514 17.4921875 29.71875 C17.47961914 31.03879028 17.47961914 31.03879028 17.46679688 32.38549805 C17.16990669 40.94241023 14.76940284 46.73304748 8.8984375 53.01171875 C2.69650321 58.79621516 -2.98666177 61.48051466 -11.4453125 61.40625 C-12.1986084 61.40052979 -12.9519043 61.39480957 -13.72802734 61.38891602 C-19.92611237 61.1900792 -24.28666457 59.91403478 -29.1328125 55.90625 C-30.08027344 55.17921875 -30.08027344 55.17921875 -31.046875 54.4375 C-37.46241672 48.86826378 -40.59859064 41.4565081 -41.578125 33.11328125 C-41.80688438 25.51084462 -41.23049937 19.38364943 -37.1328125 12.90625 C-36.69710937 12.19855469 -36.26140625 11.49085938 -35.8125 10.76171875 C-27.87953469 -0.92098152 -13.2169744 -4.61440503 0 0 Z " fill="#060606" transform="translate(263.1328125,219.09375)"/>
<path d="M0 0 C4.07447661 3.56040713 6.74276218 7.80129356 7.37109375 13.171875 C7.59503364 25.23828335 7.59503364 25.23828335 3.58203125 30.37890625 C3.05996094 30.91386719 2.53789062 31.44882812 2 32 C1.48824219 32.52464844 0.97648437 33.04929687 0.44921875 33.58984375 C-4.95013189 37.91171865 -11.57795678 37.91687659 -18.20703125 37.54296875 C-23.59930242 36.77105763 -26.50340069 35.1043206 -30 31 C-30.52207031 30.41992188 -31.04414063 29.83984375 -31.58203125 29.2421875 C-35.22471509 24.44548536 -35.75360378 19.83285543 -35.484375 13.90234375 C-34.49940354 8.00045832 -31.3797306 4.03952605 -27 0.125 C-18.27111812 -6.057958 -9.14665175 -5.21295187 0 0 Z " fill="#FCFCFC" transform="translate(265,232)"/>
<path d="M0 0 C6.6752034 -0.02526945 13.35039457 -0.04283268 20.02563477 -0.05493164 C22.29842591 -0.05997325 24.5712138 -0.06680637 26.84399414 -0.07543945 C30.10303551 -0.08751261 33.36203417 -0.09322987 36.62109375 -0.09765625 C37.64400009 -0.10281754 38.66690643 -0.10797882 39.72080994 -0.11329651 C40.66170975 -0.11337204 41.60260956 -0.11344757 42.57202148 -0.11352539 C43.40475082 -0.115746 44.23748016 -0.11796661 45.09544373 -0.12025452 C47 0 47 0 48 1 C48.125 3.5 48.125 3.5 48 6 C46.4303011 7.5696989 44.87559822 7.13499102 42.69555664 7.14526367 C41.32392113 7.15483345 41.32392113 7.15483345 39.92457581 7.16459656 C38.43243813 7.16626579 38.43243813 7.16626579 36.91015625 7.16796875 C35.89529648 7.17129715 34.88043671 7.17462555 33.83482361 7.17805481 C31.6835882 7.1831285 29.5323449 7.185463 27.38110352 7.18530273 C24.08010964 7.18748834 20.77945025 7.20563707 17.47851562 7.22460938 C15.39323032 7.22754331 13.30794341 7.2295281 11.22265625 7.23046875 C10.22992203 7.23765427 9.23718781 7.24483978 8.21437073 7.25224304 C7.29679489 7.24916641 6.37921906 7.24608978 5.43383789 7.24291992 C4.62411026 7.24434494 3.81438263 7.24576996 2.9801178 7.24723816 C1 7 1 7 -1 5 C-0.625 2.375 -0.625 2.375 0 0 Z " fill="#040404" transform="translate(146,261)"/>
<path d="M0 0 C6.39037231 -0.02527062 12.78073183 -0.04283317 19.17114258 -0.05493164 C21.34692873 -0.05997308 23.52271147 -0.06680607 25.69848633 -0.07543945 C28.81853067 -0.08751338 31.93853038 -0.09323005 35.05859375 -0.09765625 C36.52733192 -0.10539818 36.52733192 -0.10539818 38.02574158 -0.11329651 C39.37702904 -0.11340981 39.37702904 -0.11340981 40.75561523 -0.11352539 C41.95141457 -0.11685631 41.95141457 -0.11685631 43.17137146 -0.12025452 C45 0 45 0 46 1 C46.125 3.5 46.125 3.5 46 6 C44.45843445 7.54156555 43.02554236 7.13468494 40.87915039 7.14526367 C39.56757713 7.15483345 39.56757713 7.15483345 38.22950745 7.16459656 C36.8029911 7.16626579 36.8029911 7.16626579 35.34765625 7.16796875 C33.89195473 7.17296135 33.89195473 7.17296135 32.40684509 7.17805481 C30.3497668 7.1831283 28.29268025 7.18546301 26.2355957 7.18530273 C23.07945256 7.18748826 19.92365929 7.20563691 16.76757812 7.22460938 C14.7734387 7.22754333 12.77929761 7.22952811 10.78515625 7.23046875 C9.36167625 7.24124702 9.36167625 7.24124702 7.90943909 7.25224304 C7.03190475 7.24916641 6.15437042 7.24608978 5.25024414 7.24291992 C4.4760463 7.24434494 3.70184845 7.24576996 2.90419006 7.24723816 C1 7 1 7 -1 5 C-0.625 2.375 -0.625 2.375 0 0 Z " fill="#020202" transform="translate(147,242)"/>
<path d="M0 0 C1.5149707 -0.00580078 1.5149707 -0.00580078 3.06054688 -0.01171875 C4.64125977 0.00568359 4.64125977 0.00568359 6.25390625 0.0234375 C7.30384766 0.01183594 8.35378906 0.00023437 9.43554688 -0.01171875 C10.44681641 -0.00785156 11.45808594 -0.00398438 12.5 0 C13.88529907 0.00507568 13.88529907 0.00507568 15.29858398 0.01025391 C18.286728 0.47094905 19.6728182 1.2861043 21.81640625 3.3984375 C22.19140625 6.4609375 22.19140625 6.4609375 21.81640625 9.3984375 C19.1315346 12.08330915 17.75163644 11.65613199 14.00390625 11.6640625 C12.84632813 11.66664063 11.68875 11.66921875 10.49609375 11.671875 C9.28179687 11.66414063 8.0675 11.65640625 6.81640625 11.6484375 C5.60210937 11.65617187 4.3878125 11.66390625 3.13671875 11.671875 C1.40035156 11.66800781 1.40035156 11.66800781 -0.37109375 11.6640625 C-1.97017578 11.66067871 -1.97017578 11.66067871 -3.6015625 11.65722656 C-6.18359375 11.3984375 -6.18359375 11.3984375 -8.18359375 9.3984375 C-8.73946251 4.17327111 -8.73946251 4.17327111 -6.98803711 1.73193359 C-4.56835138 -0.05623086 -2.99167735 0.0109748 0 0 Z " fill="#FCFCFC" transform="translate(230.18359375,298.6015625)"/>
<path d="M0 0 C1.59424805 -0.00386719 1.59424805 -0.00386719 3.22070312 -0.0078125 C4.33509766 -0.00007813 5.44949219 0.00765625 6.59765625 0.015625 C7.70818359 0.00789063 8.81871094 0.00015625 9.96289062 -0.0078125 C11.02701172 -0.00523437 12.09113281 -0.00265625 13.1875 0 C14.65304321 0.00338379 14.65304321 0.00338379 16.14819336 0.00683594 C18.66015625 0.265625 18.66015625 0.265625 21.66015625 2.265625 C21.97265625 5.765625 21.97265625 5.765625 21.66015625 9.265625 C19.01316009 11.91262116 17.75621216 11.52312267 14.06640625 11.53125 C12.95394531 11.53382813 11.84148437 11.53640625 10.6953125 11.5390625 C9.52871094 11.53132813 8.36210937 11.52359375 7.16015625 11.515625 C5.99355469 11.52335937 4.82695312 11.53109375 3.625 11.5390625 C2.51253906 11.53648437 1.40007812 11.53390625 0.25390625 11.53125 C-0.77025391 11.52899414 -1.79441406 11.52673828 -2.84960938 11.52441406 C-5.33984375 11.265625 -5.33984375 11.265625 -7.33984375 9.265625 C-7.58984375 5.765625 -7.58984375 5.765625 -7.33984375 2.265625 C-4.7371529 -0.33706585 -3.62027582 0.00836851 0 0 Z " fill="#FCFCFD" transform="translate(147.33984375,298.734375)"/>
<path d="M0 0 C1.22244667 0.00333092 1.22244667 0.00333092 2.46958923 0.00672913 C3.39046829 0.00680466 4.31134735 0.00688019 5.26013184 0.00695801 C6.2611644 0.01211929 7.26219696 0.01728058 8.29356384 0.02259827 C9.31316696 0.02401321 10.33277008 0.02542816 11.38327026 0.02688599 C14.65417867 0.03250355 17.92501972 0.04505902 21.19590759 0.05775452 C23.40749515 0.06276725 25.61908377 0.06733055 27.83067322 0.07142639 C33.26494116 0.08247868 38.69916957 0.09923389 44.13340759 0.12025452 C44.13340759 2.10025452 44.13340759 4.08025452 44.13340759 6.12025452 C28.95340759 6.12025452 13.77340759 6.12025452 -1.86659241 6.12025452 C-2.19659241 4.47025452 -2.52659241 2.82025452 -2.86659241 1.12025452 C-1.86659241 0.12025452 -1.86659241 0.12025452 0 0 Z " fill="#010101" transform="translate(148.86659240722656,224.87974548339844)"/>
</svg>
